<svg height="1662" width="720" xmlns="http://www.w3.org/2000/svg">
<rect height="1662" fill="#555" width="720"></rect>
<text fill="#7f7" font-family="Courier New" font-size="12" xml:space="preserve">
<tspan x="10" y="26">11 megabytes installed</tspan>
<tspan x="10" y="42"></tspan>
<tspan x="10" y="58">node_modules</tspan>
<tspan x="10" y="74">└─┬ broken-link-checker@0.7.4 </tspan>
<tspan x="10" y="90">  ├─┬ bhttp@1.2.4 </tspan>
<tspan x="10" y="106">  │ ├── bluebird@2.11.0 </tspan>
<tspan x="10" y="122">  │ ├─┬ concat-stream@1.6.0 </tspan>
<tspan x="10" y="138">  │ │ ├── inherits@2.0.3 </tspan>
<tspan x="10" y="154">  │ │ ├─┬ readable-stream@2.2.9 </tspan>
<tspan x="10" y="170">  │ │ │ ├── buffer-shims@1.0.0 </tspan>
<tspan x="10" y="186">  │ │ │ ├── core-util-is@1.0.2 </tspan>
<tspan x="10" y="202">  │ │ │ ├── isarray@1.0.0 </tspan>
<tspan x="10" y="218">  │ │ │ ├── process-nextick-args@1.0.7 </tspan>
<tspan x="10" y="234">  │ │ │ ├── string_decoder@1.0.0 </tspan>
<tspan x="10" y="250">  │ │ │ └── util-deprecate@1.0.2 </tspan>
<tspan x="10" y="266">  │ │ └── typedarray@0.0.6 </tspan>
<tspan x="10" y="282">  │ ├─┬ debug@2.6.4 </tspan>
<tspan x="10" y="298">  │ │ └── ms@0.7.3 </tspan>
<tspan x="10" y="314">  │ ├── dev-null@0.1.1 </tspan>
<tspan x="10" y="330">  │ ├── errors@0.2.0 </tspan>
<tspan x="10" y="346">  │ ├── extend@2.0.1 </tspan>
<tspan x="10" y="362">  │ ├─┬ form-data2@1.0.3 </tspan>
<tspan x="10" y="378">  │ │ ├── combined-stream2@1.1.2 </tspan>
<tspan x="10" y="394">  │ │ ├── mime@1.3.4 </tspan>
<tspan x="10" y="410">  │ │ └── uuid@2.0.3 </tspan>
<tspan x="10" y="426">  │ ├── form-fix-array@1.0.0 </tspan>
<tspan x="10" y="442">  │ ├── lodash@2.4.2 </tspan>
<tspan x="10" y="458">  │ ├── stream-length@1.0.2 </tspan>
<tspan x="10" y="474">  │ ├── string@3.3.3 </tspan>
<tspan x="10" y="490">  │ ├─┬ through2-sink@1.0.0 </tspan>
<tspan x="10" y="506">  │ │ ├─┬ through2@0.5.1 </tspan>
<tspan x="10" y="522">  │ │ │ └─┬ readable-stream@1.0.34 </tspan>
<tspan x="10" y="538">  │ │ │   ├── isarray@0.0.1 </tspan>
<tspan x="10" y="554">  │ │ │   └── string_decoder@0.10.31 </tspan>
<tspan x="10" y="570">  │ │ └── xtend@3.0.0 </tspan>
<tspan x="10" y="586">  │ ├── through2-spy@1.2.0 </tspan>
<tspan x="10" y="602">  │ └─┬ tough-cookie@2.3.2 </tspan>
<tspan x="10" y="618">  │   └── punycode@1.4.1 </tspan>
<tspan x="10" y="634">  ├── calmcard@0.1.1 </tspan>
<tspan x="10" y="650">  ├─┬ chalk@1.1.3 </tspan>
<tspan x="10" y="666">  │ ├── ansi-styles@2.2.1 </tspan>
<tspan x="10" y="682">  │ ├── escape-string-regexp@1.0.5 </tspan>
<tspan x="10" y="698">  │ ├─┬ has-ansi@2.0.0 </tspan>
<tspan x="10" y="714">  │ │ └── ansi-regex@2.1.1 </tspan>
<tspan x="10" y="730">  │ ├── strip-ansi@3.0.1 </tspan>
<tspan x="10" y="746">  │ └── supports-color@2.0.0 </tspan>
<tspan x="10" y="762">  ├── char-spinner@1.0.1 </tspan>
<tspan x="10" y="778">  ├── condense-whitespace@1.0.0 </tspan>
<tspan x="10" y="794">  ├─┬ default-user-agent@1.0.0 </tspan>
<tspan x="10" y="810">  │ └─┬ os-name@1.0.3 </tspan>
<tspan x="10" y="826">  │   ├─┬ osx-release@1.1.0 </tspan>
<tspan x="10" y="842">  │   │ └── minimist@1.2.0 </tspan>
<tspan x="10" y="858">  │   └─┬ win-release@1.1.1 </tspan>
<tspan x="10" y="874">  │     └── semver@5.3.0 </tspan>
<tspan x="10" y="890">  ├─┬ errno@0.1.4 </tspan>
<tspan x="10" y="906">  │ └── prr@0.0.0 </tspan>
<tspan x="10" y="922">  ├── extend@3.0.0 </tspan>
<tspan x="10" y="938">  ├── http-equiv-refresh@1.0.0 </tspan>
<tspan x="10" y="954">  ├── humanize-duration@3.10.0 </tspan>
<tspan x="10" y="970">  ├── is-stream@1.1.0 </tspan>
<tspan x="10" y="986">  ├── is-string@1.0.4 </tspan>
<tspan x="10" y="1002">  ├─┬ limited-request-queue@2.0.0 </tspan>
<tspan x="10" y="1018">  │ ├── is-browser@2.0.1 </tspan>
<tspan x="10" y="1034">  │ └── parse-domain@0.2.2 </tspan>
<tspan x="10" y="1050">  ├── link-types@1.1.0 </tspan>
<tspan x="10" y="1066">  ├── maybe-callback@2.1.0 </tspan>
<tspan x="10" y="1082">  ├─┬ nopter@0.3.0 </tspan>
<tspan x="10" y="1098">  │ ├─┬ caller-path@0.1.0 </tspan>
<tspan x="10" y="1114">  │ │ └── callsites@0.2.0 </tspan>
<tspan x="10" y="1130">  │ ├── camelcase@1.2.1 </tspan>
<tspan x="10" y="1146">  │ ├─┬ chalk@0.5.1 </tspan>
<tspan x="10" y="1162">  │ │ ├── ansi-styles@1.1.0 </tspan>
<tspan x="10" y="1178">  │ │ ├─┬ has-ansi@0.1.0 </tspan>
<tspan x="10" y="1194">  │ │ │ └── ansi-regex@0.2.1 </tspan>
<tspan x="10" y="1210">  │ │ ├── strip-ansi@0.3.0 </tspan>
<tspan x="10" y="1226">  │ │ └── supports-color@0.2.0 </tspan>
<tspan x="10" y="1242">  │ ├─┬ cli-table@0.3.1 </tspan>
<tspan x="10" y="1258">  │ │ └── colors@1.0.3 </tspan>
<tspan x="10" y="1274">  │ ├── eol@0.2.0 </tspan>
<tspan x="10" y="1290">  │ ├─┬ nopt@3.0.6 </tspan>
<tspan x="10" y="1306">  │ │ └── abbrev@1.1.0 </tspan>
<tspan x="10" y="1322">  │ ├── object-assign@2.1.1 </tspan>
<tspan x="10" y="1338">  │ └── splitargs@0.0.7 </tspan>
<tspan x="10" y="1354">  ├── parse5@2.2.3 </tspan>
<tspan x="10" y="1370">  ├─┬ robot-directives@0.3.0 </tspan>
<tspan x="10" y="1386">  │ ├── isbot@2.0.3 </tspan>
<tspan x="10" y="1402">  │ └─┬ useragent@2.1.13 </tspan>
<tspan x="10" y="1418">  │   ├── lru-cache@2.2.4 </tspan>
<tspan x="10" y="1434">  │   └─┬ tmp@0.0.31 </tspan>
<tspan x="10" y="1450">  │     └── os-tmpdir@1.0.2 </tspan>
<tspan x="10" y="1466">  ├── robots-txt-guard@0.1.0 </tspan>
<tspan x="10" y="1482">  ├─┬ robots-txt-parse@0.0.4 </tspan>
<tspan x="10" y="1498">  │ ├── split@0.3.3 </tspan>
<tspan x="10" y="1514">  │ ├─┬ stream-combiner@0.2.2 </tspan>
<tspan x="10" y="1530">  │ │ └── duplexer@0.1.1 </tspan>
<tspan x="10" y="1546">  │ └── through@2.3.8 </tspan>
<tspan x="10" y="1562">  ├─┬ urlcache@0.6.0 </tspan>
<tspan x="10" y="1578">  │ └─┬ urlobj@0.0.8 </tspan>
<tspan x="10" y="1594">  │   └── object-assign@4.1.1 </tspan>
<tspan x="10" y="1610">  └─┬ urlobj@0.0.10 </tspan>
<tspan x="10" y="1626">    ├── is-object@1.0.1 </tspan>
<tspan x="10" y="1642">    └── object-assign@4.1.1</tspan>
</text>
</svg>
